<svg width="54" height="54" viewBox="0 0 54 54" fill="none" xmlns="http://www.w3.org/2000/svg">
<path d="M15.8266 11.1156H38.2812C40.4543 11.1156 41.8847 11.1198 42.9448 11.2611C43.9491 11.3949 44.3162 11.6183 44.5397 11.8399C44.7608 12.059 44.9829 12.4158 45.1168 13.403C45.2587 14.4496 45.2631 15.8633 45.2631 18.0188V36.051H8.84473V18.0188C8.84473 15.8633 8.84905 14.4496 8.991 13.403C9.1249 12.4158 9.34703 12.059 9.56807 11.8399C9.79154 11.6183 10.1587 11.3949 11.163 11.2611C12.2231 11.1198 13.6535 11.1156 15.8266 11.1156Z" stroke="#6FE4CF" stroke-width="4"/>
<path d="M45.7661 36.0511H8.3417C6.42699 36.0511 4.84473 37.5944 4.84473 39.535C4.84473 42.2952 7.09721 44.5028 9.83868 44.5028H44.2691C47.0106 44.5028 49.2631 42.2952 49.2631 39.535C49.2631 37.5944 47.6808 36.0511 45.7661 36.0511Z" stroke="#6FE4CF" stroke-width="4"/>
</svg>
