<svg width="67" height="67" viewBox="0 0 67 67" fill="none" xmlns="http://www.w3.org/2000/svg">
<path d="M10.375 22.3333C10.375 19.6447 10.3792 17.8295 10.5616 16.4734C10.7362 15.1747 11.0404 14.6003 11.4245 14.2162C11.8087 13.832 12.3831 13.5278 13.6817 13.3532C15.0379 13.1709 16.8531 13.1666 19.5417 13.1666H47.4583C50.1469 13.1666 51.9621 13.1709 53.3183 13.3532C54.6169 13.5278 55.1913 13.832 55.5755 14.2162C55.9596 14.6003 56.2638 15.1747 56.4384 16.4734C56.6208 17.8295 56.625 19.6447 56.625 22.3333V45.4583H10.375V22.3333Z" stroke="#6FE4CF" stroke-width="4"/>
<path d="M10.2361 45.4584C8.10368 45.4584 6.375 47.1871 6.375 49.3195C6.375 52.4798 8.93693 55.0417 12.0972 55.0417H54.9028C58.0631 55.0417 60.625 52.4798 60.625 49.3195C60.625 47.1871 58.8963 45.4584 56.7639 45.4584H10.2361Z" stroke="#6FE4CF" stroke-width="4"/>
</svg>
