<svg width="96" height="81" viewBox="0 0 96 81" fill="none" xmlns="http://www.w3.org/2000/svg">
<path d="M20 24.25C20 22.3644 20 21.4216 20.5858 20.8358C21.1716 20.25 22.1144 20.25 24 20.25H54.3286C55.1531 20.25 55.5653 20.25 55.9354 20.4046C56.3054 20.5593 56.5951 20.8526 57.1745 21.4392L73.2239 37.6892C74.534 39.0156 75.189 39.6788 75.189 40.5C75.189 41.3212 74.534 41.9844 73.2239 43.3108L57.1745 59.5608C56.5951 60.1474 56.3054 60.4407 55.9354 60.5954C55.5653 60.75 55.1531 60.75 54.3286 60.75H24C22.1144 60.75 21.1716 60.75 20.5858 60.1642C20 59.5784 20 58.6356 20 56.75V24.25Z" fill="#00CAA8" fill-opacity="0.21"/>
</svg>
