<svg width="93" height="79" viewBox="0 0 93 79" fill="none" xmlns="http://www.w3.org/2000/svg">
<path d="M19.4648 24.124C19.4648 22.2384 19.4648 21.2956 20.0506 20.7098C20.6364 20.124 21.5792 20.124 23.4648 20.124H52.4174C53.2391 20.124 53.65 20.124 54.019 20.2777C54.3881 20.4314 54.6775 20.723 55.2564 21.3061L70.5183 36.682C71.8377 38.0112 72.4974 38.6758 72.4974 39.4999C72.4974 40.324 71.8377 40.9886 70.5183 42.3178L55.2564 57.6937C54.6775 58.2769 54.3881 58.5685 54.019 58.7222C53.65 58.8758 53.2391 58.8758 52.4174 58.8758H23.4648C21.5792 58.8758 20.6364 58.8758 20.0506 58.29C19.4648 57.7043 19.4648 56.7614 19.4648 54.8758V24.124Z" fill="#00CAA8" fill-opacity="0.21"/>
</svg>
