<svg width="93" height="77" viewBox="0 0 93 77" fill="none" xmlns="http://www.w3.org/2000/svg">
<path d="M19.4648 23.4155C19.4648 21.5299 19.4648 20.5871 20.0506 20.0013C20.6364 19.4155 21.5792 19.4155 23.4648 19.4155H52.4352C53.2484 19.4155 53.6549 19.4155 54.0209 19.5663C54.3869 19.7171 54.6755 20.0034 55.2527 20.5762L70.454 35.6607C71.802 36.9983 72.4759 37.6671 72.4759 38.5001C72.4759 39.333 71.802 40.0018 70.454 41.3394L55.2527 56.4239C54.6755 56.9967 54.3869 57.2831 54.0209 57.4338C53.6549 57.5846 53.2484 57.5846 52.4352 57.5846H23.4648C21.5792 57.5846 20.6364 57.5846 20.0506 56.9988C19.4648 56.413 19.4648 55.4702 19.4648 53.5846V23.4155Z" fill="#00CAA8" fill-opacity="0.21"/>
</svg>
