<svg width="93" height="79" viewBox="0 0 93 79" fill="none" xmlns="http://www.w3.org/2000/svg">
<path d="M19.8486 24.124C19.8486 22.2384 19.8486 21.2956 20.4344 20.7098C21.0202 20.124 21.963 20.124 23.8486 20.124H52.8012C53.6229 20.124 54.0338 20.124 54.4028 20.2777C54.7719 20.4314 55.0613 20.723 55.6402 21.3061L70.9021 36.682C72.2215 38.0112 72.8812 38.6758 72.8812 39.4999C72.8812 40.324 72.2215 40.9886 70.9021 42.3178L55.6402 57.6937C55.0613 58.2769 54.7719 58.5685 54.4028 58.7222C54.0338 58.8758 53.6229 58.8758 52.8012 58.8758H23.8486C21.963 58.8758 21.0202 58.8758 20.4344 58.29C19.8486 57.7043 19.8486 56.7614 19.8486 54.8758V24.124Z" fill="#00CAA8" fill-opacity="0.21"/>
</svg>
