<svg width="93" height="77" viewBox="0 0 93 77" fill="none" xmlns="http://www.w3.org/2000/svg">
<path d="M19.8486 23.4155C19.8486 21.5299 19.8486 20.5871 20.4344 20.0013C21.0202 19.4155 21.963 19.4155 23.8486 19.4155H52.819C53.6321 19.4155 54.0387 19.4155 54.4047 19.5663C54.7707 19.7171 55.0593 20.0034 55.6365 20.5762L70.8378 35.6607C72.1858 36.9983 72.8597 37.6671 72.8597 38.5001C72.8597 39.333 72.1858 40.0018 70.8378 41.3394L55.6365 56.4239C55.0593 56.9967 54.7707 57.2831 54.4047 57.4338C54.0387 57.5846 53.6321 57.5846 52.819 57.5846H23.8486C21.963 57.5846 21.0202 57.5846 20.4344 56.9988C19.8486 56.413 19.8486 55.4702 19.8486 53.5846V23.4155Z" fill="#00CAA8" fill-opacity="0.21"/>
</svg>
